<?xml version="1.0" standalone="no"?>
<!DOCTYPE svg PUBLIC "-//W3C//DTD SVG 20010904//EN"
 "http://www.w3.org/TR/2001/REC-SVG-20010904/DTD/svg10.dtd">
<svg version="1.0" xmlns="http://www.w3.org/2000/svg"
 width="162.000000pt" height="162.000000pt" viewBox="0 0 162.000000 162.000000"
 preserveAspectRatio="xMidYMid meet">

<g transform="translate(0.000000,162.000000) scale(0.100000,-0.100000)"
fill="#000000" stroke="none">
<path d="M620 1570 c-101 -25 -160 -51 -256 -116 -167 -111 -288 -288 -329
-482 -22 -100 -19 -273 5 -367 71 -278 296 -508 570 -582 91 -24 310 -24 400
1 273 74 499 305 570 581 24 94 27 267 5 367 -41 194 -162 371 -329 482 -98
66 -155 91 -261 117 -105 25 -271 25 -375 -1z m193 -127 c-7 -2 -19 -2 -25 0
-7 3 -2 5 12 5 14 0 19 -2 13 -5z m64 -9 c-3 -3 -12 -4 -19 -1 -8 3 -5 6 6 6
11 1 17 -2 13 -5z m-129 -11 c-15 -2 -42 -2 -60 0 -18 2 -6 4 27 4 33 0 48 -2
33 -4z m335 -56 c4 3 7 -1 7 -10 0 -22 -3 -21 -26 5 -12 14 -13 18 -3 10 9 -6
19 -9 22 -5z m-168 -79 c42 6 88 -40 133 -129 36 -72 45 -102 54 -180 14 -127
13 -125 47 -87 l30 33 -3 -86 c-2 -90 -20 -139 -51 -139 -9 0 -15 -9 -15 -22
0 -13 -14 -52 -31 -88 -28 -58 -31 -74 -29 -149 1 -46 6 -92 13 -102 9 -14 8
-30 -1 -66 -14 -55 -101 -233 -113 -233 -5 0 -31 20 -59 45 -28 25 -58 45 -68
45 -9 0 -27 18 -39 39 -13 22 -48 59 -80 83 -31 24 -80 65 -109 91 -51 47 -53
51 -60 115 -4 40 -16 83 -29 107 -12 22 -25 52 -29 66 -4 18 -15 29 -31 33
-41 10 -61 67 -56 164 1 25 5 32 21 32 11 0 20 -4 20 -10 0 -5 4 -10 9 -10 5
0 12 28 16 63 4 34 13 85 20 112 8 28 17 63 20 79 4 18 33 56 73 97 l68 67 89
6 c50 3 98 6 107 6 9 1 22 8 28 16 7 7 17 11 24 7 6 -4 20 -6 31 -5z m300 -78
c10 -11 16 -20 13 -20 -3 0 -13 9 -23 20 -10 11 -16 20 -13 20 3 0 13 -9 23
-20z m6 -87 c13 -16 12 -17 -3 -4 -10 7 -18 15 -18 17 0 8 8 3 21 -13z m-24
-145 c-2 -13 -4 -3 -4 22 0 25 2 35 4 23 2 -13 2 -33 0 -45z"/>
<path d="M883 1115 c-18 -8 -33 -21 -33 -30 0 -14 3 -14 29 -1 51 27 105 30
140 10 37 -22 55 -9 22 17 -28 23 -110 25 -158 4z"/>
<path d="M548 1094 c-16 -8 -28 -21 -28 -29 0 -19 2 -19 45 6 32 19 43 21 81
12 29 -7 47 -7 51 -1 17 29 -101 38 -149 12z"/>
<path d="M923 1014 c-7 -19 2 -28 22 -21 19 8 19 23 0 31 -9 3 -18 -1 -22 -10z"/>
<path d="M610 980 c0 -11 7 -20 15 -20 8 0 15 9 15 20 0 11 -7 20 -15 20 -8 0
-15 -9 -15 -20z"/>
<path d="M765 909 c-8 -77 -1 -93 36 -87 35 5 38 60 8 116 -13 23 -27 42 -30
42 -4 0 -10 -32 -14 -71z"/>
<path d="M710 770 c-18 -12 -2 -12 25 0 13 6 15 9 5 9 -8 0 -22 -4 -30 -9z"/>
<path d="M665 750 c-3 -5 -2 -10 4 -10 5 0 13 5 16 10 3 6 2 10 -4 10 -5 0
-13 -4 -16 -10z"/>
<path d="M763 723 c26 -2 67 -2 90 0 23 2 2 3 -48 3 -49 0 -68 -1 -42 -3z"/>
</g>
</svg>
